<?xml version="1.0" encoding="UTF-8" standalone="no"?>
<!-- Created with Inkscape (http://www.inkscape.org/) -->

<svg
   xmlns:dc="http://purl.org/dc/elements/1.1/"
   xmlns:cc="http://creativecommons.org/ns#"
   xmlns:rdf="http://www.w3.org/1999/02/22-rdf-syntax-ns#"
   xmlns:svg="http://www.w3.org/2000/svg"
   xmlns="http://www.w3.org/2000/svg"
   xmlns:sodipodi="http://sodipodi.sourceforge.net/DTD/sodipodi-0.dtd"
   xmlns:inkscape="http://www.inkscape.org/namespaces/inkscape"
   width="347.11145"
   height="347.83972"
   viewBox="0 0 97.962567 98.1681"
   version="1.1"
   id="svg8"
   inkscape:version="0.48.4 r9939"
   sodipodi:docname="envire_logo_graph.png">
  <defs
     id="defs2">
    <clipPath
       id="clipPath86">
      <path
         d="M 0,2055.1 H 2055.1 V 0 H 0 v 2055.1 z"
         id="path88"
         inkscape:connector-curvature="0" />
    </clipPath>
    <clipPath
       id="clipPath94">
      <path
         d="m 865.36,1005.8 h 384 v -347 h -384 v 347 z"
         id="path96"
         inkscape:connector-curvature="0" />
    </clipPath>
    <clipPath
       id="clipPath3927">
      <path
         transform="matrix(0.89346,0,0,-0.90205,632.34,2313.7)"
         d="m 1486.1,1425.8 a 1043.75,1033.8495 0 1 1 -2087.5,0 1043.75,1033.8495 0 1 1 2087.5,0 z"
         style="fill:none;stroke:#ffffff;stroke-width:103.87999725"
         id="path3929"
         inkscape:connector-curvature="0" />
    </clipPath>
  </defs>
  <sodipodi:namedview
     id="base"
     pagecolor="#ffffff"
     bordercolor="#666666"
     borderopacity="1.0"
     inkscape:pageopacity="0.0"
     inkscape:pageshadow="2"
     inkscape:zoom="0.9899495"
     inkscape:cx="302.16992"
     inkscape:cy="12.763658"
     inkscape:document-units="mm"
     inkscape:current-layer="g4575"
     showgrid="false"
     inkscape:window-width="1237"
     inkscape:window-height="1000"
     inkscape:window-x="1963"
     inkscape:window-y="24"
     inkscape:window-maximized="1"
     showguides="false"
     units="mm"
     fit-margin-top="0"
     fit-margin-left="0"
     fit-margin-right="0"
     fit-margin-bottom="0">
    <sodipodi:guide
       position="-73.928329,-121.99433"
       orientation="-0.70710678,0.70710678"
       id="guide17177"
       inkscape:locked="false" />
  </sodipodi:namedview>
  <metadata
     id="metadata5">
    <rdf:RDF>
      <cc:Work
         rdf:about="">
        <dc:format>image/svg+xml</dc:format>
        <dc:type
           rdf:resource="http://purl.org/dc/dcmitype/StillImage" />
        <dc:title></dc:title>
      </cc:Work>
    </rdf:RDF>
  </metadata>
  <g
     inkscape:label="Layer 1"
     inkscape:groupmode="layer"
     id="layer1"
     transform="translate(-4.4960372,-95.158203)">
    <g
       id="g4575">
      <path
         inkscape:export-ydpi="90"
         inkscape:export-xdpi="90"
         inkscape:connector-curvature="0"
         id="path5415-4"
         d="m 52.273918,160.79704 14.741158,30.01041"
         style="fill:none;stroke:#1f1f1f;stroke-width:2;stroke-linecap:butt;stroke-linejoin:miter;stroke-miterlimit:4;stroke-opacity:1;stroke-dasharray:none" />
      <path
         inkscape:export-ydpi="90"
         inkscape:export-xdpi="90"
         inkscape:connector-curvature="0"
         id="path5415-5"
         d="m 19.046802,150.95486 32.220951,8.92953"
         style="fill:none;stroke:#1f1f1f;stroke-width:2;stroke-linecap:butt;stroke-linejoin:miter;stroke-miterlimit:4;stroke-opacity:1;stroke-dasharray:none" />
      <path
         inkscape:export-ydpi="90"
         inkscape:export-xdpi="90"
         d="m 32.845557,174.06755 a 5.6004685,6.2679655 68.683457 1 1 -4.072227,-10.43446 5.6004685,6.2679655 68.683457 1 1 4.072227,10.43446 z"
         style="fill:#ff0000;fill-opacity:1;stroke:#1f1f1f;stroke-width:2;stroke-miterlimit:4;stroke-opacity:1;stroke-dasharray:none"
         id="path2890"
         inkscape:connector-curvature="0" />
      <path
         inkscape:export-ydpi="90"
         inkscape:export-xdpi="90"
         d="m 68.414168,121.27947 a 6.727661,6.0113191 59.803094 1 1 -10.391415,6.04664 6.727661,6.0113191 59.803094 1 1 10.391415,-6.04664 z"
         style="fill:#46dbb7;fill-opacity:1;stroke:#000000;stroke-width:2.70000005;stroke-miterlimit:4;stroke-dasharray:none"
         id="path2892"
         inkscape:connector-curvature="0" />
      <path
         inkscape:export-ydpi="90"
         inkscape:export-xdpi="90"
         d="m 51.24718,186.62653 a 7.1023978,7.9487227 17.946242 1 1 -13.513598,-4.37682 7.1023978,7.9487227 17.946242 1 1 13.513598,4.37682 z"
         style="fill:none;stroke:#1f1f1f;stroke-width:2;stroke-miterlimit:4;stroke-opacity:1;stroke-dasharray:none"
         id="path2894"
         inkscape:connector-curvature="0" />
      <path
         inkscape:export-ydpi="90"
         inkscape:export-xdpi="90"
         d="m 87.143225,155.79249 a 6.2283101,6.9705012 69.605301 1 1 -4.341027,-11.67572 6.2283101,6.9705012 69.605301 1 1 4.341027,11.67572 z"
         style="fill:#c8b7b7;stroke:#1f1f1f;stroke-width:2;stroke-miterlimit:4;stroke-opacity:1;stroke-dasharray:none"
         id="path2896"
         inkscape:connector-curvature="0" />
      <path
         inkscape:export-ydpi="90"
         inkscape:export-xdpi="90"
         d="m 91.980801,178.66677 a 8.2436679,7.365671 10.057822 1 1 2.573127,-14.50486 8.2436679,7.365671 10.057822 0 1 -2.573127,14.50486 z"
         style="fill:none;stroke:#1f1f1f;stroke-width:2;stroke-miterlimit:4;stroke-opacity:1;stroke-dasharray:none"
         id="path2898"
         inkscape:connector-curvature="0" />
      <path
         inkscape:export-ydpi="90"
         inkscape:export-xdpi="90"
         inkscape:connector-curvature="0"
         id="path5409"
         d="m 23.349153,117.72357 28.77497,42.16657 6.94285,-26.77261"
         style="fill:none;stroke:#1f1f1f;stroke-width:2;stroke-linecap:butt;stroke-linejoin:miter;stroke-miterlimit:4;stroke-opacity:1;stroke-dasharray:none" />
      <path
         sodipodi:nodetypes="ccc"
         inkscape:export-ydpi="90"
         inkscape:export-xdpi="90"
         inkscape:connector-curvature="0"
         id="path5411"
         d="m 78.13179,152.12134 -25.925144,7.21628 -5.370963,17.93587"
         style="fill:none;stroke:#1f1f1f;stroke-width:2;stroke-linecap:butt;stroke-linejoin:miter;stroke-miterlimit:4;stroke-opacity:1;stroke-dasharray:none" />
      <path
         inkscape:export-ydpi="90"
         inkscape:export-xdpi="90"
         inkscape:connector-curvature="0"
         id="path5415"
         d="m 52.835249,160.26996 32.22095,8.92953"
         style="fill:none;stroke:#1f1f1f;stroke-width:2;stroke-linecap:butt;stroke-linejoin:miter;stroke-miterlimit:4;stroke-opacity:1;stroke-dasharray:none" />
      <ellipse
         inkscape:export-ydpi="90"
         inkscape:export-xdpi="90"
         transform="matrix(0.99616063,0.08754422,-0.10623043,0.99434154,0.56444444,1.6933334)"
         style="color:#000000;fill:#46dbb7;fill-opacity:1;stroke:#1f1f1f;stroke-width:2.00017618999999991;stroke-miterlimit:4;stroke-opacity:1;stroke-dasharray:none"
         id="path3183"
         cx="73.562958"
         cy="116.30291"
         rx="10.719218"
         ry="11.340844"
         d="m 84.282176,116.30291 c 0,6.26338 -4.799157,11.34084 -10.719218,11.34084 -5.920061,0 -10.719218,-5.07746 -10.719218,-11.34084 0,-6.26338 4.799157,-11.34084 10.719218,-11.34084 5.920061,0 10.719218,5.07746 10.719218,11.34084 z"
         sodipodi:cx="73.562958"
         sodipodi:cy="116.30291"
         sodipodi:rx="10.719218"
         sodipodi:ry="11.340844" />
      <rect
         inkscape:export-ydpi="90"
         inkscape:export-xdpi="90"
         transform="matrix(0.99999999,-1.6205897e-4,1.9701211e-4,0.99999998,0,0)"
         x="31.225199"
         y="165.33136"
         width="1.7635357"
         height="1.3329089"
         style="color:#000000;fill:#ffffff;stroke:#000000;stroke-width:0.3526924;stroke-opacity:0.00390619"
         id="rect3233" />
      <rect
         inkscape:export-ydpi="90"
         inkscape:export-xdpi="90"
         transform="matrix(0.99999999,-1.6205897e-4,1.9701211e-4,0.99999998,0,0)"
         x="32.106819"
         y="166.13095"
         width="1.4696302"
         height="1.0663457"
         style="color:#000000;fill:#ffffff;stroke:#000000;stroke-width:0.3526924;stroke-opacity:0.00390619"
         id="rect3235" />
      <g
         inkscape:export-ydpi="90"
         inkscape:export-xdpi="90"
         transform="translate(-2.6458334,-5.8208336)"
         id="g17292"
         style="stroke-width:1.5;stroke-miterlimit:4;stroke-dasharray:none">
        <path
           inkscape:connector-curvature="0"
           id="path2888"
           style="fill:#00ff00;fill-opacity:1;stroke:#1f1f1f;stroke-width:2;stroke-miterlimit:4;stroke-opacity:1;stroke-dasharray:none"
           d="m 71.212861,187.72358 a 6.2678464,5.6004862 57.964891 1 1 -9.495339,5.94127 6.2678464,5.6004862 57.964891 1 1 9.495339,-5.94127 z"
           inkscape:export-xdpi="90"
           inkscape:export-ydpi="90" />
        <ellipse
           transform="matrix(0.92150165,0.38837445,-0.45599617,0.88998174,-1.1288889,0.56444446)"
           style="color:#000000;fill:#ffffff;stroke:#000000;stroke-width:1.50209177;stroke-miterlimit:4;stroke-opacity:0.00390619;stroke-dasharray:none"
           id="path3666"
           cx="146.80122"
           cy="147.22043"
           rx="2.1558955"
           ry="2.3485539"
           inkscape:export-xdpi="90"
           inkscape:export-ydpi="90"
           d="m 148.95712,147.22043 c 0,1.29707 -0.96523,2.34855 -2.1559,2.34855 -1.19066,0 -2.15589,-1.05148 -2.15589,-2.34855 0,-1.29707 0.96523,-2.34856 2.15589,-2.34856 1.19067,0 2.1559,1.05149 2.1559,2.34856 z"
           sodipodi:cx="146.80122"
           sodipodi:cy="147.22043"
           sodipodi:rx="2.1558955"
           sodipodi:ry="2.3485539" />
        <ellipse
           transform="matrix(0.92150165,0.38837445,-0.45599617,0.88998174,-1.1288889,0.56444446)"
           style="color:#000000;fill:#ffffff;stroke:#000000;stroke-width:1.50209177;stroke-miterlimit:4;stroke-opacity:0.00390619;stroke-dasharray:none"
           id="path3670"
           cx="144.19073"
           cy="148.65387"
           rx="0.77612227"
           ry="0.99635619"
           inkscape:export-xdpi="90"
           inkscape:export-ydpi="90"
           d="m 144.96686,148.65387 c 0,0.55027 -0.34748,0.99636 -0.77613,0.99636 -0.42864,0 -0.77612,-0.44609 -0.77612,-0.99636 0,-0.55027 0.34748,-0.99636 0.77612,-0.99636 0.42865,0 0.77613,0.44609 0.77613,0.99636 z"
           sodipodi:cx="144.19073"
           sodipodi:cy="148.65387"
           sodipodi:rx="0.77612227"
           sodipodi:ry="0.99635619" />
      </g>
      <ellipse
         inkscape:export-ydpi="90"
         inkscape:export-xdpi="90"
         transform="matrix(0.96421503,-0.26512143,0.45588144,0.89004051,0,1.6933334)"
         ry="2.180959"
         rx="2.1567152"
         cy="167.51675"
         cx="10.870353"
         id="path3704"
         style="color:#000000;fill:#ffffff;stroke:#000000;stroke-width:0.20368284;stroke-opacity:0.00390619"
         d="m 13.027068,167.51675 c 0,1.20451 -0.965594,2.18096 -2.156715,2.18096 -1.1911211,0 -2.1567154,-0.97645 -2.1567154,-2.18096 0,-1.20451 0.9655943,-2.18095 2.1567154,-2.18095 1.191121,0 2.156715,0.97644 2.156715,2.18095 z"
         sodipodi:cx="10.870353"
         sodipodi:cy="167.51675"
         sodipodi:rx="2.1567152"
         sodipodi:ry="2.180959" />
      <ellipse
         inkscape:export-ydpi="90"
         inkscape:export-xdpi="90"
         transform="matrix(0.96562245,0.25994863,-0.05790415,0.99832215,0.56444444,1.6933334)"
         ry="1.5993699"
         rx="0.80876821"
         cy="102.72457"
         cx="73.895699"
         id="path3706"
         style="color:#000000;fill:#ffffff;stroke:#000000;stroke-width:0.20368284;stroke-opacity:0.00390619"
         d="m 74.704467,102.72457 c 0,0.88331 -0.362098,1.59937 -0.808768,1.59937 -0.446671,0 -0.808769,-0.71606 -0.808769,-1.59937 0,-0.88331 0.362098,-1.59937 0.808769,-1.59937 0.44667,0 0.808768,0.71606 0.808768,1.59937 z"
         sodipodi:cx="73.895699"
         sodipodi:cy="102.72457"
         sodipodi:rx="0.80876821"
         sodipodi:ry="1.5993699" />
      <ellipse
         inkscape:export-ydpi="90"
         inkscape:export-xdpi="90"
         transform="matrix(0.96421503,-0.26512143,0.45588144,0.89004051,0.56444444,1.6933334)"
         ry="0.94508219"
         rx="0.98849452"
         cy="136.55264"
         cx="-0.065609291"
         id="path3710"
         style="color:#000000;fill:#ffffff;stroke:#000000;stroke-width:0.20368284;stroke-opacity:0.00390619"
         d="m 0.92288522,136.55264 c 0,0.52196 -0.44256407,0.94509 -0.98849451,0.94509 -0.54593045,0 -0.98849451,-0.42313 -0.98849451,-0.94509 0,-0.52195 0.44256406,-0.94508 0.98849451,-0.94508 0.54593044,0 0.98849451,0.42313 0.98849451,0.94508 z"
         sodipodi:cx="-0.065609291"
         sodipodi:cy="136.55264"
         sodipodi:rx="0.98849452"
         sodipodi:ry="0.94508219" />
      <ellipse
         inkscape:export-ydpi="90"
         inkscape:export-xdpi="90"
         transform="matrix(0.96421503,-0.26512143,0.45588144,0.89004051,0.56444444,1.6933334)"
         ry="1.2358768"
         rx="1.2580839"
         cy="132.48509"
         cx="1.8024194"
         id="path3712"
         style="color:#000000;fill:#ffffff;stroke:#000000;stroke-width:0.20368284;stroke-opacity:0.00390619"
         d="m 3.0605034,132.48509 c 0,0.68256 -0.5632634,1.23588 -1.258084,1.23588 -0.6948205,0 -1.25808392,-0.55332 -1.25808392,-1.23588 0,-0.68255 0.56326342,-1.23587 1.25808392,-1.23587 0.6948206,0 1.258084,0.55332 1.258084,1.23587 z"
         sodipodi:cx="1.8024194"
         sodipodi:cy="132.48509"
         sodipodi:rx="1.2580839"
         sodipodi:ry="1.2358768" />
      <path
         inkscape:export-ydpi="90"
         inkscape:export-xdpi="90"
         d="m 51.82058,163.21597 c 0.148018,0.016 0.373799,-0.39914 0.512517,-0.9463 l 0.316632,-1.24886 1.997906,0.50468 c 0.147708,0.0383 0.344767,-0.23878 0.441021,-0.62263 0.09701,-0.38258 0.057,-0.72067 -0.09072,-0.75905 l -1.997906,-0.5047 0.316127,-1.2469 c 0.142237,-0.561 0.137667,-1.04307 -0.01051,-1.07945 l -1.038675,-0.26236 c -0.146961,-0.037 -0.381453,0.38348 -0.52369,0.9445 l -0.315384,1.24814 -1.997911,-0.50468 c -0.146961,-0.0369 -0.345267,0.24078 -0.442265,0.62337 -0.09701,0.3826 -0.05498,0.72118 0.09196,0.75832 l 1.997905,0.50469 -0.316133,1.24688 c -0.142232,0.56103 -0.138402,1.04187 0.0093,1.08019 l 1.038674,0.26241 c 0.004,5.3e-4 0.008,0.002 0.01123,0.002 z"
         style="fill:#fc0000;fill-rule:evenodd;stroke:#333333;stroke-width:0.51103735;stroke-linecap:round;stroke-miterlimit:4;stroke-opacity:1;stroke-dasharray:none"
         id="path2471"
         inkscape:connector-curvature="0" />
      <path
         inkscape:export-ydpi="90"
         inkscape:export-xdpi="90"
         d="m 10.898924,155.52343 a 6.6802194,5.9688196 11.908996 1 1 2.462906,-11.68081 6.6802194,5.9688196 11.908996 1 1 -2.462906,11.68081 z"
         style="fill:none;stroke:#1f1f1f;stroke-width:2;stroke-miterlimit:4;stroke-opacity:1;stroke-dasharray:none"
         id="path2890-2"
         inkscape:connector-curvature="0" />
      <g
         inkscape:export-ydpi="90"
         inkscape:export-xdpi="90"
         transform="translate(2.8222224,19.261666)"
         id="g17287">
        <g
           transform="matrix(0.01322402,0,0,-0.01327805,4.4598362,102.93111)"
           id="g10">
          <g
             id="g3933"
             transform="translate(-11.720401,-31.254403)">
            <g
               clip-path="url(#clipPath3927)"
               id="g3869">
              <path
                 d="m 28.364,2026.8 h 2000 V 26.8 h -2000 z"
                 style="fill:#f3f4f4;fill-rule:evenodd"
                 id="path12"
                 inkscape:connector-curvature="0" />
              <path
                 d="m 478.36,746.75 h 210 v -190 h -210 z"
                 style="fill:#7fc7ed;fill-rule:evenodd"
                 id="path14"
                 inkscape:connector-curvature="0" />
              <path
                 d="m 1878.4,196.75 h 150 v -170 h -150 z"
                 style="fill:#7fc7ed;fill-rule:evenodd"
                 id="path16"
                 inkscape:connector-curvature="0" />
              <path
                 d="m 738.36,456.75 h 260 V 247.08 h -260 z"
                 style="fill:#7fc7ed;fill-rule:evenodd"
                 id="path18"
                 inkscape:connector-curvature="0" />
              <path
                 d="m 1538.4,2026.8 h 290 v -220 h -290 z"
                 style="fill:#7fc7ed;fill-rule:evenodd"
                 id="path20"
                 inkscape:connector-curvature="0" />
              <path
                 d="m 1168.4,1756.8 h 660 v -810 h -660 z"
                 style="fill:#83cdac;fill-rule:evenodd"
                 id="path22"
                 inkscape:connector-curvature="0" />
              <path
                 d="m 28.364,1756.8 h 140 v -960 h -140 z"
                 style="fill:#83cdac;fill-rule:evenodd"
                 id="path24"
                 inkscape:connector-curvature="0" />
              <path
                 d="m 478.36,196.75 h 210 v -170 h -210 z"
                 style="fill:#83cdac;fill-rule:evenodd"
                 id="path26"
                 inkscape:connector-curvature="0" />
              <path
                 d="m 1118.4,1506.8 h -950 v 20 h 950 z"
                 style="fill:#ececec;fill-rule:evenodd"
                 id="path28"
                 inkscape:connector-curvature="0" />
              <path
                 d="m 738.36,996.75 h -570 v 20 h 570 z"
                 style="fill:#ececec;fill-rule:evenodd"
                 id="path30"
                 inkscape:connector-curvature="0" />
              <path
                 d="m 918.36,1906.8 h -890 v 20 h 890 z"
                 style="fill:#ececec;fill-rule:evenodd"
                 id="path32"
                 inkscape:connector-curvature="0" />
              <path
                 d="m 478.36,606.75 h -450 v 20 h 450 z"
                 style="fill:#ececec;fill-rule:evenodd"
                 id="path34"
                 inkscape:connector-curvature="0" />
              <path
                 d="m 2028.4,1586.8 h -150 v 20 h 150 z"
                 style="fill:#ececec;fill-rule:evenodd"
                 id="path36"
                 inkscape:connector-curvature="0" />
              <path
                 d="m 2028.4,1016.8 h -150 v 20 h 150 z"
                 style="fill:#ececec;fill-rule:evenodd"
                 id="path38"
                 inkscape:connector-curvature="0" />
              <path
                 d="m 2028.4,766.75 h -150 v 20 h 150 z"
                 style="fill:#ececec;fill-rule:evenodd"
                 id="path40"
                 inkscape:connector-curvature="0" />
              <path
                 d="m 738.36,346.75 h -710 v 20 h 710 z"
                 style="fill:#ececec;fill-rule:evenodd"
                 id="path42"
                 inkscape:connector-curvature="0" />
              <path
                 d="m 1828.4,656.75 h -780 v 20 h 780 z"
                 style="fill:#ececec;fill-rule:evenodd"
                 id="path44"
                 inkscape:connector-curvature="0" />
              <path
                 d="m 898.36,2026.8 h 20 v -910 h -20 z"
                 style="fill:#ececec;fill-rule:evenodd"
                 id="path46"
                 inkscape:connector-curvature="0" />
              <path
                 d="m 898.36,196.75 h 20 v -170 h -20 z"
                 style="fill:#ececec;fill-rule:evenodd"
                 id="path48"
                 inkscape:connector-curvature="0" />
              <path
                 d="m 1578.4,676.75 h 20 v -430 h -20 z"
                 style="fill:#ececec;fill-rule:evenodd"
                 id="path50"
                 inkscape:connector-curvature="0" />
              <path
                 d="M 2028.4,1756.8 H 28.4 v 50 h 2000 z"
                 style="fill:#ffffff;fill-rule:evenodd"
                 id="path52"
                 inkscape:connector-curvature="0" />
              <path
                 d="m 738.36,746.75 h -710 v 50 h 710 z"
                 style="fill:#ffffff;fill-rule:evenodd"
                 id="path54"
                 inkscape:connector-curvature="0" />
              <path
                 d="m 1878.4,896.75 h -1147 v 50 h 1147 z"
                 style="fill:#ffffff;fill-rule:evenodd"
                 id="path56"
                 inkscape:connector-curvature="0" />
              <path
                 d="M 2028.4,196.75 H 28.4 v 50 h 2000 z"
                 style="fill:#ffffff;fill-rule:evenodd"
                 id="path58"
                 inkscape:connector-curvature="0" />
              <path
                 d="m 2028.4,1116.8 h -1340 v 50 h 1340 z"
                 style="fill:#ffffff;fill-rule:evenodd"
                 id="path60"
                 inkscape:connector-curvature="0" />
              <path
                 d="m 168.36,2026.8 h 50 V 26.8 h -50 z"
                 style="fill:#ffffff;fill-rule:evenodd"
                 id="path62"
                 inkscape:connector-curvature="0" />
              <path
                 d="m 1828.4,2026.8 h 50 V 26.8 h -50 z"
                 style="fill:#ffffff;fill-rule:evenodd"
                 id="path64"
                 inkscape:connector-curvature="0" />
              <path
                 d="m 688.36,2026.8 h 50 V 26.8 h -50 z"
                 style="fill:#ffffff;fill-rule:evenodd"
                 id="path66"
                 inkscape:connector-curvature="0" />
              <path
                 d="m 1118.4,1806.8 h 50 v -910 h -50 z"
                 style="fill:#ffffff;fill-rule:evenodd"
                 id="path68"
                 inkscape:connector-curvature="0" />
              <path
                 d="m 998.36,896.75 h 50 v -700 h -50 z"
                 style="fill:#ffffff;fill-rule:evenodd"
                 id="path70"
                 inkscape:connector-curvature="0" />
              <path
                 d="m 1488.4,2026.8 h 50 v -910 h -50 z"
                 style="fill:#ffffff;fill-rule:evenodd"
                 id="path72"
                 inkscape:connector-curvature="0" />
              <path
                 d="m 378.36,2026.8 h 100 V 26.8 h -100 z"
                 style="fill:#fee379;fill-rule:evenodd"
                 id="path74"
                 inkscape:connector-curvature="0" />
              <path
                 d="m 1328.4,2026.8 h 100 V 26.8 h -100 z"
                 style="fill:#fee379;fill-rule:evenodd"
                 id="path76"
                 inkscape:connector-curvature="0" />
              <path
                 d="M 2028.4,1286.8 H 28.4 v 100 h 2000 z"
                 style="fill:#fee379;fill-rule:evenodd"
                 id="path78"
                 inkscape:connector-curvature="0" />
              <path
                 d="m 2027.4,456.75 h -1549 v 100 h 1549 z"
                 style="fill:#fee379;fill-rule:evenodd"
                 id="path80"
                 inkscape:connector-curvature="0" />
              <g
                 id="g82">
                <g
                   clip-path="url(#clipPath86)"
                   id="g84">
                  <g
                     id="g90">
                    <g
                       id="g98">
                      <g
                         clip-path="url(#clipPath94)"
                         style="opacity:0.3"
                         id="g100">
                        <g
                           transform="translate(866.57,658.75)"
                           id="g102">
                          <path
                             d="m 0,0 c 48.69,46.36 154.72,112.35 247.51,144.89 50.55,17.73 86.91,39.46 101.97,55.07 52.3,54.2 41.88,116.38 -23.29,138.89 -65.17,22.5 -160.41,-3.19 -212.71,-57.4 C 98.41,265.85 85.14,236.14 84.75,201.09 84.05,136.75 41.55,48.83 -1.21,0.42 z"
                             style="fill:#d0d0d0"
                             id="path104"
                             inkscape:connector-curvature="0" />
                        </g>
                      </g>
                    </g>
                  </g>
                  <g
                     transform="translate(867.24,659.29)"
                     id="g106">
                    <path
                       d="m 0,0 c 4.29,83.52 50.31,219.18 117.02,304.56 36.34,46.52 53.06,91.85 53.06,119.36 0,95.54 -76.54,173 -170.96,173 -94.42,0 -170.96,-77.46 -170.96,-173 0,-27.51 16.72,-72.84 53.06,-119.36 C -52.07,219.18 -6.05,83.52 -1.76,0 z"
                       style="fill:#de5764"
                       id="path108"
                       inkscape:connector-curvature="0" />
                  </g>
                  <g
                     transform="translate(867.24,659.29)"
                     id="g110">
                    <path
                       d="m 0,0 c 4.29,83.52 50.31,219.18 117.02,304.56 36.34,46.52 53.06,91.85 53.06,119.36 0,95.54 -76.54,173 -170.96,173 -94.42,0 -170.96,-77.46 -170.96,-173 0,-27.51 16.72,-72.84 53.06,-119.36 C -52.07,219.18 -6.05,83.52 -1.76,0 z"
                       style="fill:none;stroke:#ec5c6a;stroke-width:10;stroke-linecap:round;stroke-linejoin:round;stroke-miterlimit:10"
                       id="path112"
                       inkscape:connector-curvature="0" />
                  </g>
                  <g
                     transform="translate(803.86,1087.3)"
                     id="g114">
                    <path
                       d="M 0,0 C 0,34.52 27.98,62.5 62.5,62.5 97.02,62.5 125,34.52 125,0 125,-34.52 97.02,-62.5 62.5,-62.5 27.98,-62.5 0,-34.52 0,0"
                       style="fill:#ffffff;fill-rule:evenodd"
                       id="path116"
                       inkscape:connector-curvature="0" />
                  </g>
                  <g
                     transform="translate(803.86,1087.3)"
                     id="g118">
                    <path
                       d="M 0,0 C 0,34.52 27.98,62.5 62.5,62.5 97.02,62.5 125,34.52 125,0 125,-34.52 97.02,-62.5 62.5,-62.5 27.98,-62.5 0,-34.52 0,0 z"
                       style="fill:none;stroke:#ec5c6a;stroke-width:5;stroke-linecap:round;stroke-linejoin:round;stroke-miterlimit:10"
                       id="path120"
                       inkscape:connector-curvature="0" />
                  </g>
                </g>
              </g>
            </g>
          </g>
        </g>
        <path
           inkscape:connector-curvature="0"
           id="path2886"
           style="fill:none;stroke:#1f1f1f;stroke-width:2.00000004;stroke-linejoin:miter;stroke-miterlimit:4;stroke-opacity:1;stroke-dasharray:none"
           d="M 28.419679,85.352812 A 13.168048,11.76601 67.410305 1 1 6.6930267,94.39206 13.168048,11.76601 67.410305 1 1 28.419679,85.352812 z" />
      </g>
      <g
         inkscape:export-ydpi="90"
         inkscape:export-xdpi="90"
         transform="matrix(0.07918598,0,0,0.07360068,20.824683,165.27213)"
         id="layer1-6">
        <g
           transform="translate(151.36,89.546)"
           id="g3362"
           style="stroke:#000000">
          <path
             d="m 139.29,205.27 c -1.3634,3.2002 -1.6314,7.0205 -4.4485,9.4276 -2.1697,1.4995 -4.3118,5.7864 -7.0992,3.4641 -4.5901,-2.3098 -10.581,-2.2145 -14.439,1.4873 -2.6623,1.5677 -3.1409,3.9893 -0.83934,6.1283 2.4941,3.8884 7.5847,5.4532 11.903,3.9725 1.4815,-0.1763 4.7986,-2.5209 2.5588,0.2587 -2.4543,4.0236 -4.4783,9.3958 -1.7167,13.792 1.4567,3.1542 5.4186,0.14541 7.8569,-0.49178 5.6026,-2.5437 9.6985,-7.3854 13.014,-12.422 2.6854,3.7658 7.4994,6.374 12.152,4.8633 3.41,-0.91142 6.4212,-2.8125 9.4517,-4.5547 -0.35226,-5.5963 -3.2008,-11.757 -8.9296,-13.503 -2.2101,-1.2785 -6.4385,-0.15103 -7.6026,-1.2286 0.77845,-3.1138 1.5569,-6.2276 2.3353,-9.3414"
             id="path5133"
             inkscape:connector-curvature="0"
             style="fill:#55d400;fill-rule:evenodd;stroke-width:2.16039991" />
          <path
             d="m 202.18,155.87 c 0.14108,16.262 -8.141,31.834 -20.434,41.21 -18.118,14.228 -44.087,15.511 -63.517,3.5162 -13.626,-8.176 -23.873,-23.201 -25.301,-39.988 -1.5267,-15.255 4.4221,-30.828 14.903,-41.224 13.725,-14.012 34.223,-19.321 52.632,-14.898 16.909,3.8758 32.328,16.404 38.622,33.814 2.043,5.5857 3.1014,11.576 3.0964,17.57 z"
             id="path3143"
             inkscape:connector-curvature="0"
             style="fill:#55d400;stroke-width:1.92879999" />
          <path
             d="m 144.06,133.65 c 0.19912,7.8082 -7.2187,14.492 -14.927,13.87 -7.7215,-0.15094 -14.413,-7.5529 -13.393,-15.289 0.63855,-8.0504 9.1936,-14.004 16.984,-12.187 6.3603,1.1704 11.445,7.084 11.337,13.606 z"
             id="path5083"
             inkscape:connector-curvature="0"
             style="fill:#ffffff;stroke-width:2.16039991" />
          <path
             d="m 194.68,117.91 c 0.16914,9.6577 -7.6291,18.314 -17.005,19.955 -9.8036,2.1224 -20.784,-3.4353 -24.292,-12.954 -3.3367,-8.2555 -0.0403,-18.34 7.2637,-23.322 8.5884,-6.3582 21.77,-5.0666 28.839,2.9931 3.2949,3.6062 5.2197,8.4331 5.195,13.328 z"
             id="path5085"
             inkscape:connector-curvature="0"
             style="fill:#ffffff;stroke-width:2.16039991" />
          <path
             d="m 102.45,158.75 c 7.4892,16.681 21.298,31.036 38.892,36.841 16.041,5.5378 34.92,3.233 48.414,-7.3408 12.309,-9.3644 18.989,-24.594 20.188,-39.763 1.517,-4.5187 -4.5904,-2.6581 -7.1273,-3.3308 -20.818,-0.92273 -41.623,1.6071 -62.121,5.0391 -12.872,2.244 -25.671,4.9872 -38.245,8.5541 z"
             id="path5087"
             inkscape:connector-curvature="0"
             style="fill:#ffffff;fill-rule:evenodd;stroke-width:2.16039991" />
          <path
             d="m 163.74,197.76 c -0.87481,-8.5038 -1.9679,-17.346 0.40593,-25.706 0.87184,-3.3673 3.9145,-6.6129 7.6825,-5.8104 6.043,1.2217 10.673,5.7877 14.962,9.9154 2.6601,2.8189 5.4761,5.7123 7.4698,8.9879 -8.372,7.5346 -19.287,11.978 -30.52,12.613 z"
             id="path5131"
             inkscape:connector-curvature="0"
             style="fill:#ffff00;fill-rule:evenodd;stroke-width:2.16039991" />
          <path
             d="m 134.8,128.4 c 0.0824,4.2468 -6.192,1.9772 -3.9517,-1.3802 1.1245,-2.1132 4.14,-0.80869 3.9517,1.3802 z"
             id="path5089"
             inkscape:connector-curvature="0"
             style="fill:#ffffff;stroke-width:2.16039991" />
          <path
             d="m 181.72,107.78 c 0.006,4.2284 -6.891,2.1378 -4.5162,-1.3802 1.2848,-2.0134 4.576,-1.0087 4.5162,1.3802 z"
             id="path5091"
             inkscape:connector-curvature="0"
             style="fill:#ffffff;stroke-width:2.16039991" />
          <path
             d="m 130.58,152.56 c 1.3633,4.7297 2.5923,9.8807 6.1515,13.487 3.0669,2.9655 7.0571,-0.36866 8.7823,-3.1425 3.2109,-4.3114 4.9626,-9.4769 7.5589,-14.115 l 0.1108,0.0481 0.0376,0.31861"
             id="path5093"
             inkscape:connector-curvature="0"
             style="fill:#ffff00;fill-rule:evenodd;stroke-width:2.16039991" />
        </g>
      </g>
      <g
         inkscape:export-ydpi="90"
         inkscape:export-xdpi="90"
         transform="matrix(0.02436113,0,0,0.02982335,95.962635,130.41742)"
         id="g9163">
        <g
           transform="matrix(0.85241,0,0,0.85241,-325.29,28.941)"
           id="g9110"
           style="stroke-width:5.72170019">
          <path
             d="m 345.47,1420.8 c -61.285,0 -110.97,48.746 -110.97,108.88 0,0.7203 0.0171,1.4392 0.0312,2.1562 -28.631,4.5472 -57.488,-23.786 -84.5,-30.539 0,0 -76.749,-14.032 -124.91,-55.367 0,0 -10.401,52.996 29.312,163.31 37.687,104.69 92.127,71.187 171.69,54.438 48.928,-10.301 66.154,-25.343 72.188,-35.406 14.308,6.5971 30.301,10.281 47.156,10.281 61.285,0 110.97,-48.746 110.97,-108.88 0,-60.129 -49.684,-108.88 -110.97,-108.88 z"
             style="opacity:0.99024;color:#000000;fill:#ffff00;fill-rule:evenodd;stroke:#090907;stroke-width:5.72170019"
             id="path9060"
             inkscape:connector-curvature="0" />
          <path
             d="m 162.08,1678.9 c -12.371,3.5398 -30.897,-2.1357 -39.808,4.9286 -0.61993,15.493 -10.823,35.966 -2.2239,50.33 7.1506,11.624 8.9032,26.004 17.467,36.698 4.9554,10.278 25.122,13.593 20.346,-2.29 -5.414,-11.217 -10.755,-22.968 -20.043,-31.672 7.9469,8.1727 19.191,27.59 32.042,16.636 5.7032,-10.71 -6.1614,-19.813 -14.614,-24.174 -11.484,-6.9367 9.6703,4.4816 13.972,6.2694 10.584,5.0132 21.622,9.3875 33.249,11.207 10.487,-6.8898 -3.0648,-19.264 -10.671,-22.308 -16.505,-7.9095 -37.687,-1.0775 -52.285,-13.585 -7.7356,-13.556 11.522,-18.156 18.679,-25.045 1.869,-1.9398 3.317,-4.3424 3.8915,-6.996 z"
             style="color:#000000;fill:#ffcc00;stroke:#000000;stroke-width:5.72170019"
             id="path9077"
             inkscape:connector-curvature="0" />
          <path
             d="m 229.59,1663.4 c -7.3934,3.0584 -20.528,3.7835 -25.714,8.3046 2.8525,25.943 7.9207,51.887 10.776,77.83 4.771,9.3461 15.735,12.731 24.636,16.901 11.946,4.8136 24.639,8.5361 37.537,8.9803 10.282,-4.6821 -5.1535,-12.862 -9.614,-16.466 -10.07,-6.2191 -21.516,-10.59 -33.173,-12.361 6.8584,2.9334 14.814,4.0475 22.248,5.5383 9.2108,1.0899 19.387,2.6099 28.032,-1.5685 7.4361,-3.503 6.057,-14.328 -0.98249,-17.457 -8.4971,-4.9409 -18.413,-6.6624 -28.055,-7.764 16.878,1.3133 34.011,2.9512 50.83,0.4219 11.389,-5.4978 -5.9419,-12.969 -11.817,-14.49 -20.666,-5.4044 -42.337,0.2621 -61.786,7.632 -8.1995,5.2794 -2.5263,-9.6554 -3.9278,-14.311 0.33678,-13.73 0.67353,-27.461 1.0104,-41.191 z"
             style="color:#000000;fill:#ffcc00;stroke:#000000;stroke-width:5.72170019"
             id="path9082"
             inkscape:connector-curvature="0" />
          <path
             d="m 438.22,1555.7 c 0,22.894 -17.234,41.453 -38.492,41.453 -21.259,0 -38.492,-18.559 -38.492,-41.453 0,-22.894 17.234,-41.453 38.492,-41.453 21.259,0 38.492,18.559 38.492,41.453 z"
             style="opacity:0.99024;color:#000000;fill:#ffffff;fill-rule:evenodd;stroke:#090907;stroke-width:5.72170019"
             id="path9095"
             inkscape:connector-curvature="0" />
          <path
             d="m 414.53,1573.5 c 0,8.1765 -5.9655,14.805 -13.324,14.805 -7.3588,0 -13.324,-6.6283 -13.324,-14.805 0,-8.1764 5.9655,-14.805 13.324,-14.805 7.3588,0 13.324,6.6283 13.324,14.805 z"
             style="opacity:0.99024;color:#000000;fill-rule:evenodd"
             id="path9097"
             inkscape:connector-curvature="0" />
          <path
             d="m 407.5,1620 95.875,18.625 -51.438,-78.375 c -0.18082,0.6078 -0.30872,1.2404 -0.5,1.8438 -1.0808,3.4091 -2.3149,6.7436 -3.7188,10 -1.4039,3.2563 -2.9792,6.4458 -4.6875,9.5312 -1.7083,3.0854 -3.537,6.0726 -5.5312,8.9688 -1.9942,2.8961 -4.1448,5.6864 -6.4062,8.375 -2.2615,2.6885 -4.646,5.2871 -7.1562,7.75 -2.5102,2.4628 -5.1347,4.7811 -7.875,7 -2.7403,2.2188 -5.6107,4.3246 -8.5625,6.2812 z"
             style="color:#000000;fill:#ffcc00;stroke:#000000;stroke-width:5.72170019"
             id="path9108"
             inkscape:connector-curvature="0" />
        </g>
        <path
           d="m -153.1,1372.8 c 0,0 5.0546,43.727 -68.969,55.57 -74.024,11.844 -90.681,-12.891 -90.681,-12.891 0,0 21.922,-35.891 31.672,-30.656 10.435,5.602 -67.801,-41.347 -32.781,-39.36 34.92,1.9817 -5.9219,-44.414 29.609,-32.57 20.458,6.8192 65.021,18.317 95.598,33.063 22.53,10.865 35.551,26.843 35.551,26.843 z"
           style="color:#000000;fill:#ffff00;stroke:#000000;stroke-width:4.87720013"
           id="path9161"
           inkscape:connector-curvature="0" />
      </g>
      <g
         inkscape:export-ydpi="90"
         inkscape:export-xdpi="90"
         transform="matrix(0.45005162,0,0,0.43288715,-48.843966,92.183882)"
         id="g15569">
        <path
           d="m 130.02894,136.30169 c 8.14441,-5.67736 -0.41192,-5.39357 8.9186,-2.08536 5.02001,1.78 -0.68187,9.63529 -2.19439,4.46794 -2.81105,-9.60439 -5.1889,-1.26971 0.79907,-9.24039 3.22171,-4.28854 8.83131,3.6346 3.5148,3.49568 -9.88174,-0.2585 -2.79495,4.60897 -8.42463,-3.62559 -3.02897,-4.43052 6.13993,-7.38894 4.36644,-2.30755 -3.29613,9.44456 3.46141,4.11814 -6.00588,6.99961 -5.09367,1.55034 -5.03668,-8.20136 -0.81607,-4.92174 7.8445,6.09567 4.93424,-2.06367 4.71291,7.95173 -0.11914,5.38858 -9.25277,2.32022 -4.87082,-0.73431 z"
           id="path1549"
           inkscape:connector-curvature="0"
           style="fill:#ff3000;stroke:#ff552d;stroke-width:0.76714015;stroke-linejoin:round" />
        <path
           d="m 133.42471,132.58608 a 1.6580674,1.5269997 0 1 0 3.31613,0 1.6580674,1.5269997 0 1 0 -3.31613,0 z"
           id="path1551"
           inkscape:connector-curvature="0"
           style="fill:#e3fa06;stroke:#ff542d;stroke-width:0.7263056;stroke-linejoin:round" />
      </g>
    </g>
  </g>
</svg>
